<?xml version="1.0" encoding="UTF-8" standalone="no"?>
<!-- Created with Inkscape (http://www.inkscape.org/) -->

<svg
   width="210"
   height="218"
   viewBox="0 0 210 218"
   version="1.1"
   id="svg11936"
   xmlns:xlink="http://www.w3.org/1999/xlink"
   xmlns="http://www.w3.org/2000/svg"
   xmlns:svg="http://www.w3.org/2000/svg">
  <defs
     id="defs11933">
    <radialGradient
       xlink:href="#linearGradient11106"
       id="radialGradient11042"
       cx="54.586369"
       cy="235.14128"
       fx="54.586369"
       fy="235.14128"
       r="165.18047"
       gradientTransform="matrix(1,0,0,0.8660254,0,31.502958)"
       gradientUnits="userSpaceOnUse" />
    <linearGradient
       id="linearGradient11106">
      <stop
         style="stop-color:#663399;stop-opacity:1;"
         offset="0"
         id="stop11102" />
      <stop
         style="stop-color:#8a4fc4;stop-opacity:1"
         offset="1"
         id="stop11104" />
    </linearGradient>
    <radialGradient
       xlink:href="#linearGradient11106"
       id="radialGradient11042-3"
       cx="54.586369"
       cy="235.14128"
       fx="54.586369"
       fy="235.14128"
       r="165.18047"
       gradientTransform="matrix(1,0,0,0.8660254,0,31.502958)"
       gradientUnits="userSpaceOnUse" />
    <radialGradient
       xlink:href="#linearGradient11106"
       id="radialGradient11042-38"
       cx="54.586369"
       cy="235.14128"
       fx="54.586369"
       fy="235.14128"
       r="165.18047"
       gradientTransform="matrix(1,0,0,0.8660254,0,31.502958)"
       gradientUnits="userSpaceOnUse" />
    <radialGradient
       xlink:href="#linearGradient11106"
       id="radialGradient11042-38-3"
       cx="54.586369"
       cy="235.14128"
       fx="54.586369"
       fy="235.14128"
       r="165.18047"
       gradientTransform="matrix(1,0,0,0.8660254,0,31.502958)"
       gradientUnits="userSpaceOnUse" />
    <radialGradient
       xlink:href="#linearGradient11106"
       id="radialGradient11042-38-3-4"
       cx="54.586369"
       cy="235.14128"
       fx="54.586369"
       fy="235.14128"
       r="165.18047"
       gradientTransform="matrix(1,0,0,0.8660254,0,31.502958)"
       gradientUnits="userSpaceOnUse" />
    <radialGradient
       xlink:href="#linearGradient11106"
       id="radialGradient11042-38-3-4-8"
       cx="54.586369"
       cy="235.14128"
       fx="54.586369"
       fy="235.14128"
       r="165.18047"
       gradientTransform="matrix(1,0,0,0.8660254,0,31.502958)"
       gradientUnits="userSpaceOnUse" />
    <radialGradient
       xlink:href="#linearGradient11106"
       id="radialGradient11042-38-3-4-8-2"
       cx="54.586369"
       cy="235.14128"
       fx="54.586369"
       fy="235.14128"
       r="165.18047"
       gradientTransform="matrix(1,0,0,0.8660254,0,31.502958)"
       gradientUnits="userSpaceOnUse" />
  </defs>
  
  <g
     id="layer1">
    <g
       id="g12107"
       transform="matrix(6.6491068,0,0,6.6491068,-710.26949,-408.59737)">
      <path
         style="fill:url(#radialGradient11042);fill-opacity:1;stroke:#ffffff;stroke-width:14.4858;stroke-miterlimit:4;stroke-dasharray:none;stroke-opacity:1"
         id="path846-8-5-9-3-6"
         transform="matrix(0.03934884,0,0,0.03934884,129.68525,73.859413)"
         d="m 211.40345,235.14128 -78.40854,135.80757 -156.81708,0 -78.40854,-135.80757 78.40854,-135.807572 156.81708,0 z" />
      <path
         style="fill:url(#radialGradient11042-3);fill-opacity:1;stroke:#ffffff;stroke-width:14.4858;stroke-miterlimit:4;stroke-dasharray:none;stroke-opacity:1"
         id="path846-8-5-9-3-6-1"
         transform="matrix(0.03934884,0,0,0.03934884,129.68525,63.171672)"
         d="m 211.40345,235.14128 -78.40854,135.80757 -156.81708,0 -78.40854,-135.80757 78.40854,-135.807572 156.81708,0 z" />
      <path
         style="fill:url(#radialGradient11042-38);fill-opacity:1;stroke:#ffffff;stroke-width:14.4858;stroke-miterlimit:4;stroke-dasharray:none;stroke-opacity:1"
         id="path846-8-5-9-3-6-0"
         transform="matrix(0.03934884,0,0,0.03934884,120.4294,57.827802)"
         d="m 211.40345,235.14128 -78.40854,135.80757 -156.81708,0 -78.40854,-135.80757 78.40854,-135.807572 156.81708,0 z" />
      <path
         style="fill:url(#radialGradient11042-38-3);fill-opacity:1;stroke:#ffffff;stroke-width:14.4858;stroke-miterlimit:4;stroke-dasharray:none;stroke-opacity:1"
         id="path846-8-5-9-3-6-0-2"
         transform="matrix(0.03934884,0,0,0.03934884,120.4294,68.515543)"
         d="m 211.40345,235.14128 -78.40854,135.80757 -156.81708,0 -78.40854,-135.80757 78.40854,-135.807572 156.81708,0 z" />
      <path
         style="fill:url(#radialGradient11042-38-3-4);fill-opacity:1;stroke:#ffffff;stroke-width:14.4858;stroke-miterlimit:4;stroke-dasharray:none;stroke-opacity:1"
         id="path846-8-5-9-3-6-0-2-5"
         transform="matrix(0.03934884,0,0,0.03934884,120.4294,79.203284)"
         d="m 211.40345,235.14128 -78.40854,135.80757 -156.81708,0 -78.40854,-135.80757 78.40854,-135.807572 156.81708,0 z" />
      <path
         style="fill:url(#radialGradient11042-38-3-4-8);fill-opacity:1;stroke:#ffffff;stroke-width:14.4858;stroke-miterlimit:4;stroke-dasharray:none;stroke-opacity:1"
         id="path846-8-5-9-3-6-0-2-5-3"
         transform="matrix(0.03934884,0,0,0.03934884,111.17354,63.171673)"
         d="m 211.40345,235.14128 -78.40854,135.80757 -156.81708,0 -78.40854,-135.80757 78.40854,-135.807572 156.81708,0 z" />
      <path
         style="fill:url(#radialGradient11042-38-3-4-8-2);fill-opacity:1;stroke:#ffffff;stroke-width:14.4858;stroke-miterlimit:4;stroke-dasharray:none;stroke-opacity:1"
         id="path846-8-5-9-3-6-0-2-5-3-2"
         transform="matrix(0.03934884,0,0,0.03934884,111.17354,73.859413)"
         d="m 211.40345,235.14128 -78.40854,135.80757 -156.81708,0 -78.40854,-135.80757 78.40854,-135.807572 156.81708,0 z" />
    </g>
  </g>
</svg>
